<?xml version="1.0" encoding="UTF-8"?>
<svg width="94px" height="30px" viewBox="0 0 94 30" version="1.1" xmlns="http://www.w3.org/2000/svg" xmlns:xlink="http://www.w3.org/1999/xlink">
    <!-- Generator: Sketch 50.2 (55047) - http://www.bohemiancoding.com/sketch -->
    <title>logo_bcredi</title>
    <desc>Created with Sketch.</desc>
    <defs>
        <linearGradient x1="-22.4185348%" y1="105.75111%" x2="664.923642%" y2="-506.288846%" id="linearGradient-1">
            <stop stop-color="#FCDE02" offset="0%"></stop>
            <stop stop-color="#FC9A02" offset="100%"></stop>
        </linearGradient>
    </defs>
    <g id="✅-0.0---Login/Cadastro" stroke="none" stroke-width="1" fill="none" fill-rule="evenodd">
        <g id="0.2.1---Cadastro-Imóvel-CEP-Diferente" transform="translate(-233.000000, -24.000000)" fill-rule="nonzero">
            <g id="logo_bcredi" transform="translate(233.000000, 24.000000)">
                <path d="M86.4538185,10.3871408 L86.4538185,4.63665049 C86.455062,4.60749414 86.455062,4.57846401 86.4574246,4.54930766 C86.4646368,4.46082887 86.483662,4.37348604 86.5136298,4.29106571 C86.5638663,4.15285704 86.6427028,4.02550312 86.7454141,3.92124708 C86.8481253,3.81699105 86.9735922,3.73570668 87.109753,3.6859768 C87.1921956,3.65568449 87.2770008,3.63624693 87.3642929,3.62779032 C87.3930172,3.62539218 87.4228607,3.62539218 87.4514607,3.62413 C87.480185,3.62539218 87.508785,3.62652814 87.5386285,3.62779032 C87.5673528,3.63258661 87.5959528,3.63511097 87.6246771,3.63990725 C87.7107258,3.65568449 87.7942875,3.68231648 87.873124,3.71879347 C88.0045596,3.78190245 88.1215708,3.87277939 88.2159508,3.98675421 C88.3090873,4.09959306 88.3772299,4.23287923 88.415529,4.37474822 C88.429829,4.43179874 88.4406472,4.48998522 88.4453724,4.54943388 C88.447735,4.57859023 88.447735,4.60762036 88.4489785,4.63677671 C88.4489785,8.5706119 88.4609159,12.5045733 88.4489785,16.4384085 C88.4453724,16.8276647 88.4214977,17.2169209 88.3725046,17.6037789 C88.2804873,18.3349596 88.1049082,19.0565477 87.8516118,19.7489794 C87.4359172,20.8779991 86.8098262,21.9233362 86.0166118,22.8206197 C85.033394,23.9327262 83.7956362,24.808174 82.4265673,25.3563386 C81.5460607,25.7079818 80.615442,25.9250767 79.6715181,25.9990404 C78.5915577,26.0814607 77.4984164,25.9796028 76.4530247,25.6922046 C75.3371278,25.3853687 74.2797987,24.8687586 73.3455739,24.1763268 C72.3455692,23.4365634 71.4914243,22.4980066 70.8414585,21.4295716 C70.3552588,20.6279613 69.9848267,19.7536495 69.7483173,18.8441228 C69.3648288,17.3695184 69.3313792,15.804037 69.6515747,14.3147913 C69.8450598,13.4101872 70.1701049,12.5358754 70.6096743,11.7245463 C71.1257175,10.7762708 71.798439,9.91887216 72.5916534,9.19488594 C73.3454496,8.50725048 74.2069309,7.94343485 75.1351871,7.53108077 C75.8878641,7.19635074 76.6835655,6.96234264 77.494686,6.8362509 C77.8924745,6.7744041 78.2938691,6.73805332 78.6965072,6.72833454 C78.7574376,6.72707236 78.818368,6.7259364 78.8805419,6.72467422 C78.912748,6.72467422 78.9438349,6.72467422 78.9761653,6.7259364 C79.0060088,6.72467422 79.0155836,6.72467422 79.0609705,6.72467422 C79.3643791,6.72833454 79.667912,6.74411179 79.9702014,6.7744041 C80.6570985,6.84596968 81.3369078,6.99263495 81.9928423,7.21339016 C83.1588513,7.60630668 84.2449047,8.23083315 85.1778861,9.0421622 C85.6450606,9.44732186 86.0715735,9.89956081 86.4538185,10.3871408 Z M78.9667149,8.74996762 C78.9093906,8.7512298 78.8520663,8.7512298 78.7958611,8.75236577 C78.7313246,8.75362795 78.6667881,8.75476391 78.6022516,8.75842423 C78.2079448,8.77659961 77.8148815,8.82506731 77.4279113,8.90521572 C76.7063211,9.05554131 76.0086058,9.31390947 75.3622461,9.670349 C74.6478681,10.0656637 73.9966589,10.5786134 73.4423165,11.1825664 C72.8557681,11.8228701 72.3778996,12.5637695 72.037311,13.366642 C71.7554146,14.0299174 71.5690173,14.7345923 71.4842122,15.4512578 C71.3898322,16.238353 71.4160696,17.0410993 71.5630486,17.8196117 C71.7075408,18.583609 71.9692928,19.3245084 72.3359944,20.0084835 C72.7672325,20.8148901 73.343087,21.5401385 74.0265023,22.1415671 C74.7242177,22.7551126 75.5342191,23.2366341 76.4027882,23.5543247 C77.337013,23.8951132 78.3370178,24.0417785 79.3285669,23.9909127 C79.8303102,23.9654166 80.3309343,23.8877926 80.8183776,23.7605649 C81.3369078,23.6260165 81.8410136,23.4331555 82.3188821,23.1881664 C82.857681,22.9117491 83.3630303,22.5696984 83.8217493,22.1707234 C84.3127986,21.7438543 84.7500054,21.2527402 85.1191939,20.7130322 C85.6842302,19.8847899 86.0857491,18.944971 86.2911717,17.9590825 C86.362796,17.6146337 86.4106699,17.2653886 86.4345446,16.9150075 C86.4477255,16.7342634 86.4524507,16.5547815 86.4536942,16.3741636 L86.4536942,15.4209655 C86.4430003,15.3361471 86.4309385,15.2512024 86.417882,15.1675199 C86.3330769,14.6242778 86.1897039,14.0918904 85.9913692,13.5813387 C85.5744311,12.5105056 84.916134,11.5416565 84.0822579,10.7631441 C83.336793,10.0659161 82.4514368,9.52380994 81.4945807,9.18175927 C80.9964436,9.00353951 80.480276,8.87984591 79.9570206,8.81194064 C79.6380685,8.77066737 79.317873,8.75135602 78.996434,8.75009384 L78.9667149,8.75009384 L78.9667149,8.74996762 Z" id="Shape" fill="#3C424F"></path>
                <path d="M39.6515559,16.3729014 L39.6515559,7.40524147 C39.6527994,7.3773473 39.6527994,7.34945313 39.655162,7.32155896 C39.6623742,7.23913863 39.6790368,7.15659208 39.7052741,7.0765699 C39.7589924,6.91766148 39.8522532,6.77465653 39.974114,6.66068171 C40.0744627,6.56614446 40.19508,6.4933167 40.3253965,6.44724714 C40.4031138,6.42061515 40.4854321,6.40357573 40.5667555,6.39625508 C40.5942364,6.39385694 40.6217172,6.39385694 40.6491981,6.39259476 C40.6766789,6.39385694 40.7041598,6.3949929 40.7316406,6.39625508 C40.7591215,6.39991541 40.7866024,6.40231355 40.8140832,6.40710983 C40.8952823,6.42048893 40.9741188,6.44472278 41.0505927,6.47867541 C41.3038891,6.59138805 41.5033429,6.81088109 41.5929977,7.07644368 C41.6204785,7.15646586 41.6371411,7.23888619 41.6443533,7.32143274 C41.6454724,7.34932691 41.6454724,7.37722108 41.6467159,7.40511525 L41.6467159,10.4622405 C41.8103576,10.2500681 41.9812114,10.0438279 42.16164,9.84503466 C42.6514459,9.30545287 43.201063,8.82153321 43.7971862,8.40804317 C44.4626955,7.94482325 45.1866482,7.56768398 45.9464131,7.29114043 C46.5938919,7.05473419 47.2666134,6.89090327 47.9499044,6.80242448 C48.3310303,6.75395679 48.7145188,6.72959672 49.0980074,6.72480044 C49.1565752,6.72480044 49.1565752,6.72480044 49.2138995,6.72719858 C49.2341682,6.72846076 49.2533177,6.72959672 49.2724673,6.73199486 C49.310642,6.73565518 49.3489412,6.74284961 49.3871159,6.75143243 C49.5185515,6.78298692 49.6440184,6.84243558 49.7526984,6.92359373 C49.9402148,7.06432675 50.0752565,7.27157665 50.1289747,7.50078846 C50.1517304,7.5965879 50.1611808,7.69604765 50.1553364,7.79424522 C50.1504869,7.89130683 50.1302182,7.98824223 50.0980121,8.08164352 C50.0585939,8.19195802 50.0000261,8.29634027 49.9259148,8.38608124 C49.7765731,8.56796132 49.5651819,8.69291711 49.3357603,8.73406416 C49.2975855,8.7413848 49.2592864,8.74618109 49.2198682,8.74857923 C49.1804499,8.75097737 49.1506065,8.74984141 49.1111882,8.75097737 C49.0705265,8.75097737 49.0538639,8.75097737 49.0132022,8.75223955 C48.9486657,8.75350173 48.8842535,8.75463769 48.8208362,8.75829801 C48.5818398,8.76927897 48.3442112,8.79098846 48.1075774,8.82494109 C47.5568411,8.90256514 47.0131926,9.04443413 46.4922998,9.24575178 C45.6859045,9.55738392 44.9343466,10.0110113 44.2785365,10.5808854 C43.7182254,11.0672032 43.2284195,11.6383394 42.8305067,12.2676622 C42.5186425,12.7611744 42.2642269,13.2911636 42.0718609,13.8428624 C41.8854636,14.37891 41.7599967,14.9355312 41.6967037,15.4993469 C41.6632541,15.7904055 41.6477107,16.0838623 41.6464672,16.3760568 L41.6464672,25.012647 C41.6441046,25.0877467 41.6452237,25.1060483 41.6332863,25.1800121 C41.6153803,25.2904528 41.5795681,25.397107 41.526969,25.4953045 C41.4743699,25.5935021 41.4063516,25.6819809 41.3250282,25.758469 C41.2031674,25.8724438 41.0538257,25.9537282 40.8937901,25.9950014 C40.7611111,26.0289541 40.620225,26.0350125 40.4851834,26.0119146 C40.4039843,25.9985355 40.3239043,25.9743017 40.2486739,25.9403491 C40.1483253,25.8955417 40.0539453,25.8336949 39.9738653,25.758469 C39.8317358,25.6263188 39.7290246,25.4516331 39.6823942,25.2625586 C39.6680942,25.2080325 39.6596385,25.1521179 39.6549133,25.0964558 C39.6525507,25.0685616 39.6525507,25.0406674 39.6513072,25.0127733 L39.6513072,16.3729014 L39.6515559,16.3729014 Z" id="Shape" fill="#3C424F"></path>
                <path d="M58.9112847,6.72480044 C58.9494595,6.72480044 58.9877586,6.72480044 59.0271768,6.72480044 C59.2708985,6.72719858 59.5157392,6.73817954 59.7583417,6.75875307 C60.2756285,6.80242448 60.78819,6.88850513 61.2911767,7.01699502 C61.3664071,7.03643258 61.4536992,7.07038521 61.5480792,7.11759073 C61.6496713,7.14788304 61.75002,7.18069971 61.8491251,7.21339016 C63.0151342,7.60630668 64.1010633,8.23083315 65.0341689,9.0421622 C66.0197494,9.89829863 66.8297508,10.9570149 67.3996366,12.1392985 C67.908592,13.1943545 68.223938,14.3426855 68.3267736,15.5129784 C68.3459231,15.737394 68.3578605,15.9628192 68.3625857,16.1896329 C68.3625857,16.2320421 68.3638292,16.2709173 68.3638292,16.3133265 C68.3638292,16.3727752 68.3638292,16.4309617 68.3578605,16.4904103 C68.3446796,16.6067833 68.3112301,16.7220203 68.2587553,16.8275385 C68.215731,16.9148813 68.1607693,16.9973016 68.0938702,17.0688672 C67.9349537,17.2410285 67.7163504,17.3526052 67.4858096,17.3817616 C67.4080922,17.3902182 67.3292558,17.3914803 67.2516627,17.3817616 C67.2062758,17.38782 67.1894889,17.3866841 67.1357706,17.3890822 L56.2210207,17.3890822 C56.1624529,17.3866841 56.1481529,17.38782 56.0908286,17.3793634 C55.9821486,17.3659843 55.8769504,17.3332939 55.7789644,17.283564 C55.6618288,17.2253775 55.5567549,17.1429572 55.4707063,17.0434974 C55.3989576,16.9610771 55.3405141,16.8652777 55.2986089,16.7634198 C55.2651594,16.6821354 55.2424037,16.5960547 55.2317098,16.507576 C55.1970168,16.2431493 55.2687655,15.9715283 55.4288011,15.7593559 C55.4814002,15.6890525 55.5434497,15.6259435 55.6128358,15.5726795 C55.7334531,15.478016 55.8757069,15.4126351 56.0261677,15.3823428 C56.0679486,15.3738862 56.1109729,15.3678278 56.1552407,15.3653034 C56.1767529,15.3640412 56.1982651,15.3640412 56.2208964,15.3629053 L66.3030136,15.3629053 C66.2946823,15.2973981 66.2851075,15.2320172 66.2742893,15.1676461 C66.1894841,14.624404 66.0461111,14.0920166 65.8477764,13.581465 C65.4308383,12.5106318 64.7725412,11.5417827 63.9386651,10.7632703 C63.1932002,10.0660423 62.3078441,9.52393616 61.3521071,9.18188549 C60.8539699,9.00366573 60.3365589,8.87997212 59.8133034,8.81206686 C59.5050453,8.77205577 59.1956681,8.7526182 58.8861665,8.75148224 C58.4668658,8.75514256 58.0474408,8.79515365 57.6353522,8.87037956 C56.671284,9.04506522 55.7429035,9.41488384 54.9186022,9.95206749 C54.1838312,10.4310646 53.5315028,11.0398139 52.999916,11.7432266 C52.4837485,12.4272017 52.0812347,13.1996556 51.8183635,14.0205772 C51.5758854,14.7797783 51.4527811,15.577602 51.4527811,16.375552 C51.4527811,17.0655856 51.543555,17.7530948 51.7251027,18.4176324 C51.9366183,19.1924844 52.2722329,19.9309857 52.7106831,20.5991836 C53.2124264,21.3619187 53.8492113,22.0312526 54.5816197,22.5673003 C55.3223594,23.1094064 56.1609607,23.5119155 57.0439542,23.7495839 C58.1323703,24.0406425 59.2840793,24.0793914 60.3902771,23.8635587 C61.3854323,23.6695617 62.3388067,23.2669264 63.1775324,22.6884695 C63.4619157,22.4932103 63.7318747,22.2773776 63.9875338,22.0445055 C64.1153633,21.9281325 64.2384676,21.8068371 64.3579658,21.6818813 L64.3901718,21.6479286 L64.4248649,21.6115779 L64.4821892,21.5545273 C64.5024579,21.5376141 64.5228509,21.5193125 64.5443631,21.5023993 C64.5873874,21.4697089 64.6327743,21.4405525 64.6794048,21.4150565 C64.845409,21.3253155 65.0354124,21.2853044 65.2229289,21.2998195 C65.3304897,21.3082761 65.4355636,21.3337721 65.5347931,21.3761814 C65.6578974,21.4283094 65.7701834,21.5071956 65.8633199,21.604131 C65.9756059,21.7217661 66.059292,21.8660333 66.1046789,22.0225435 C66.1345224,22.1280618 66.1477032,22.2372403 66.1440971,22.3451567 C66.1404911,22.4543352 66.1189789,22.5622515 66.0819233,22.6641094 C66.0448676,22.7659673 65.9911494,22.8617668 65.9230068,22.9467115 C65.8931633,22.9830622 65.8633199,23.0146167 65.8322329,23.0485694 C65.7904521,23.0922408 65.7497904,23.13465 65.7080095,23.1783214 C65.5275809,23.3614637 65.338821,23.5385475 65.1453359,23.7083106 C64.6197178,24.1654721 64.0449824,24.5631849 63.4345592,24.8942546 C62.9040916,25.1816529 62.3473867,25.4169232 61.7738947,25.5975411 C60.1754042,26.0996361 58.4490841,26.1614829 56.8195065,25.7794212 C55.7836896,25.5356943 54.7885344,25.1137476 53.8901217,24.5352907 C53.037096,23.9883883 52.2724816,23.3032772 51.629728,22.5137839 C50.8853822,21.5970628 50.3084086,20.5420069 49.93922,19.4142494 C49.599875,18.3762329 49.4385959,17.282428 49.4601081,16.1897591 C49.4780141,15.2014725 49.6452619,14.2179821 49.9582452,13.2818235 C50.3274338,12.1746396 50.8973196,11.1390212 51.6296036,10.2380774 C52.1624338,9.5832586 52.7800692,8.99987919 53.4622411,8.50762914 C54.1348382,8.02131133 54.8696091,7.62486072 55.6425549,7.33253992 C56.3234833,7.07417175 57.0343795,6.89595199 57.7559696,6.80267692 C58.1024025,6.75774333 58.4500788,6.73350948 58.7989987,6.72745101 L58.8013613,6.72745101 C58.856323,6.72480044 58.8586856,6.72480044 58.9112847,6.72480044 Z" id="Shape" fill="#3C424F"></path>
                <path d="M92.0952282,25.8935222 C91.5444919,25.8935222 91.0977104,25.4400211 91.0977104,24.8810017 C91.0977104,21.2999457 91.0977104,9.45224436 91.0977104,9.45224436 C91.0989539,9.42435019 91.0989539,9.39645602 91.1013165,9.36856185 C91.1084043,9.28487934 91.1251912,9.20245901 91.1514286,9.12357279 C91.2051469,8.96466438 91.2984077,8.82039725 91.4202685,8.70768461 C91.5218606,8.61314735 91.6412345,8.54031959 91.7715509,8.49425003 C91.8503874,8.46761805 91.9315865,8.45057862 92.01291,8.44325798 C92.0403908,8.44085984 92.0678717,8.44085984 92.0953525,8.43959766 C92.1228334,8.44085984 92.1503143,8.4419958 92.1777951,8.44325798 C92.205276,8.4469183 92.2327568,8.44931644 92.2602377,8.45297676 C92.3414368,8.46749183 92.4215167,8.49172568 92.4967471,8.52454235 C92.7500436,8.63725498 92.9494974,8.8580102 93.0391521,9.12357279 C93.066633,9.20245901 93.0832956,9.28487934 93.0905078,9.36856185 C93.0928704,9.39645602 93.0928704,9.42435019 93.0928704,9.45224436 C93.0928704,9.45224436 93.0928704,21.2999457 93.0928704,24.8810017 C93.0928704,25.4400211 92.647208,25.8935222 92.0964717,25.8935222 C92.0952282,25.8935222 92.0952282,25.8935222 92.0952282,25.8935222 Z M92.1227091,3.70049187 C92.6902323,3.70049187 93.1501947,4.16737211 93.1501947,4.7421687 C93.1501947,5.3169653 92.6902323,5.78384554 92.1227091,5.78384554 C91.5564293,5.78384554 91.0964669,5.3169653 91.0964669,4.7421687 C91.0964669,4.16737211 91.5564293,3.70049187 92.1227091,3.70049187 Z" id="Shape" fill="#3C424F"></path>
                <path d="M4.313699,0.00825467539 L4.33302748,1.54182098 C4.33302748,1.54182098 8.72300957,1.52220179 11.8091243,1.54182098 C12.0390527,1.54672577 12.2677731,1.56103143 12.4956882,1.59086894 C13.0006448,1.65667496 13.4967426,1.79073939 13.9654584,1.99224477 C14.5674601,2.25056404 15.1223487,2.61924122 15.59791,3.07416108 C15.8366973,3.30182537 16.0553508,3.55033505 16.2522597,3.81601151 C16.9770779,4.79451837 17.3882109,5.989245 17.4707596,7.2072694 C17.5009603,7.65360586 17.4892827,8.10280346 17.4280759,8.54587005 C17.3624395,9.02204402 17.2408312,9.49045207 17.0668748,9.93801473 C16.7805716,10.6741429 16.3521235,11.3518223 15.8145501,11.9244572 C15.2942917,12.4786992 14.6729614,12.9328016 13.989619,13.2569269 C13.4492267,13.5132025 12.8709829,13.6873227 12.2798534,13.7715217 C11.997577,13.8115776 11.7132872,13.8291531 11.4281921,13.8311968 L11.3371871,13.836919 C11.2582625,13.8520422 11.2369206,13.8524509 11.16162,13.8822884 C11.0484679,13.9268403 10.946188,13.9983686 10.8660553,14.091151 C10.7653861,14.2068224 10.7013605,14.3527401 10.6832401,14.506015 C10.6780053,14.5505669 10.6763945,14.6302698 10.6780053,14.6764567 C10.6800186,14.7475762 10.6828374,14.7904932 10.6997498,14.8595691 C10.7287425,14.9793278 10.7859226,15.0913207 10.866458,15.1836943 C10.987261,15.3226636 11.1567879,15.4142198 11.3375898,15.4375175 C11.4004074,15.4456922 11.4495339,15.4432398 11.5115462,15.4440573 C11.5795985,15.4452835 11.598927,15.4461009 11.6673821,15.4485533 C11.744696,15.4518232 11.8220099,15.4563193 11.8993239,15.4620415 C12.1276416,15.481252 12.3543486,15.510272 12.5790423,15.5540065 C13.0417179,15.6443365 13.4935212,15.7894367 13.9231773,15.9868547 C14.854166,16.4143895 15.6720025,17.0834854 16.2840712,17.9140309 C16.7097005,18.4907532 17.0338553,19.1434999 17.2364017,19.8346674 C17.4256598,20.4792394 17.5078059,21.1544663 17.4824372,21.8264234 C17.4566659,22.5155473 17.3165344,23.1989489 17.0668748,23.840251 C16.7894305,24.5538989 16.3791029,25.211959 15.864482,25.7735582 C15.3341567,26.3515067 14.6951087,26.8252283 13.989619,27.1595719 C13.4717766,27.4048117 12.9201095,27.5748447 12.3555567,27.6627223 C12.0756963,27.7064567 11.7942252,27.7277108 11.5119488,27.7330243 C10.0236555,27.7428339 5.80199232,27.7612269 4.313699,27.7326156 C4.00202718,27.722806 3.69357678,27.6647659 3.40083078,27.5539993 C2.93412841,27.3782441 2.51776063,27.0761904 2.20246473,26.6854416 C1.99105942,26.4234437 1.82636463,26.1234337 1.7176419,25.8033957 C1.61938877,25.5144215 1.56945685,25.211959 1.56422205,24.9070442 L1.56381938,24.869032 L1.56381938,0.00988960748 L0.0529761591,0.00988960748 C0.0529761591,6.61174539 -0.0670215166,18.3795778 0.0541841894,24.9806162 C0.0566002499,25.0533706 0.0598216641,25.1257164 0.065056462,25.1976534 C0.100492017,25.6456248 0.198342471,26.086239 0.363037267,26.5039641 C0.593771053,27.0892698 0.948931959,27.6214402 1.3987219,28.0559234 C1.82193518,28.4646564 2.32689185,28.7846944 2.87412957,28.991922 C3.32391951,29.1615462 3.79706471,29.2510588 4.27665274,29.2665906 C5.78346919,29.2952019 10.0240582,29.276809 11.5312773,29.2674081 C11.8208019,29.2616858 12.1087158,29.2428841 12.3958243,29.2060981 C13.0461473,29.1218991 13.6851953,28.9514575 14.2924319,28.6996779 C15.5596557,28.1740473 16.6746676,27.2952713 17.4941148,26.1831087 C18.0260508,25.4612862 18.4315463,24.6454551 18.68483,23.7813935 C18.9115371,23.0076619 19.0158303,22.1983705 18.9956965,21.3919402 C18.9739519,20.5282873 18.8088545,19.669948 18.5060415,18.8627003 C18.1702091,17.9667575 17.6672659,17.1370295 17.0318419,16.4278777 C16.5635288,15.9046994 16.023942,15.4473271 15.4332152,15.072519 C15.1803342,14.9122956 14.9181916,14.7684216 14.6492035,14.6384445 C14.7253094,14.6020672 14.8014153,14.5636463 14.8767159,14.5252254 C15.308788,14.2971524 15.719921,14.0327021 16.1032693,13.7273786 C17.0100974,13.0039211 17.7502173,12.0707836 18.2511472,11.0162524 C18.602684,10.2764457 18.8354311,9.47941628 18.9373084,8.66440263 C18.9981126,8.1788278 19.0118036,7.68834817 18.9840189,7.20032094 C18.9260334,6.16908753 18.6783872,5.14929863 18.2430936,4.21452621 C17.8496784,3.37008379 17.3040514,2.59880457 16.6331919,1.95831993 C16.0267607,1.37955397 15.3204657,0.910328456 14.5537691,0.581298373 C13.9586129,0.325840234 13.3292291,0.154989831 12.6885703,0.0711995609 C12.4026698,0.0340048558 12.115964,0.0160206028 11.8280501,0.00988960748 C8.72945239,-0.0113645097 4.313699,0.00825467539 4.313699,0.00825467539 Z" id="Shape" fill="url(#linearGradient-1)" transform="translate(9.499070, 14.640973) scale(1, -1) translate(-9.499070, -14.640973) "></path>
                <path d="M30.4917845,6.72518857 C30.736271,6.72760912 30.9803032,6.73775236 31.2239948,6.7581541 C31.7405619,6.80183918 32.2536088,6.88805671 32.7562084,7.01646088 C33.8648575,7.29954945 34.9201351,7.78953702 35.8579957,8.45276649 C36.1871951,8.68559991 36.5017457,8.93952667 36.79949,9.21247199 C36.9128191,9.31632492 37.0234228,9.42328998 37.131869,9.53221453 L37.1705917,9.57151957 C37.2189666,9.62465631 37.2328205,9.63675904 37.2744956,9.69565898 C37.3685201,9.82821266 37.4300676,9.9837039 37.4525517,10.1454194 C37.4676547,10.2531913 37.46527,10.3632685 37.4459654,10.4703488 C37.4070156,10.6849705 37.2989102,10.8840316 37.1408399,11.0319154 C37.0619184,11.1056844 36.9714141,11.1663133 36.8736422,11.2109205 C36.7758704,11.2555277 36.671058,11.2839979 36.5644287,11.2948327 C36.3234625,11.319384 36.0774998,11.2524155 35.8810476,11.108566 C35.824156,11.0669556 35.7745319,11.0185447 35.7250214,10.9686354 C35.6929986,10.9361309 35.6604079,10.904318 35.6278173,10.8723899 C35.5840982,10.8299727 35.5400384,10.7881319 35.4955243,10.7466368 C35.1599658,10.4366917 34.7987436,10.1560237 34.4143559,9.91131806 C33.7259783,9.47308406 32.9685585,9.1498836 32.1782075,8.95808418 C31.1731216,8.7141854 30.1176169,8.68525412 29.1004941,8.86967664 C28.1359479,9.04476276 27.2085345,9.41499096 26.3837759,9.95189101 C25.6488402,10.4303522 24.9970277,11.0390617 24.4656983,11.7424031 C23.9487906,12.4268412 23.5465746,13.1996868 23.2841462,14.0200212 C23.0410224,14.7796114 22.9184953,15.5771235 22.9184953,16.3757883 C22.9184953,17.0648369 23.0094538,17.7533092 23.1910301,18.4173455 C23.4026989,19.1916896 23.7371218,19.9303017 24.1764707,20.5987181 C24.6777077,21.3615357 25.3145308,22.0313353 26.0473089,22.5673132 C26.788263,23.1090543 27.6258535,23.5122481 28.5088664,23.7488852 C29.597416,24.0408491 30.7500113,24.079232 31.8555943,23.8638035 C32.8511414,23.6699293 33.8044456,23.2668508 34.6429445,22.6886863 C34.9270621,22.4927373 35.1978936,22.2773088 35.4531679,22.0440143 C35.5805779,21.9277129 35.7035593,21.8065703 35.8232475,21.6820851 L35.8554975,21.647967 L35.8900185,21.611313 L35.9475915,21.5544878 C35.9683723,21.5371982 35.9882446,21.5191017 36.0097068,21.502619 C36.0524039,21.4697687 36.0975993,21.4403764 36.1449522,21.4147877 C36.3108578,21.3254581 36.5009508,21.2850004 36.6884321,21.2995237 C36.7952885,21.3077074 36.9007822,21.3336418 36.9994625,21.3757132 C37.0982564,21.4178999 37.1902369,21.4763387 37.2707482,21.5481483 C37.3917991,21.6559202 37.4861643,21.7931997 37.5439644,21.9456941 C37.5921122,22.0727151 37.6145964,22.209303 37.609827,22.3451993 C37.6059661,22.4540086 37.5848446,22.5618958 37.5472575,22.6639045 C37.509784,22.7657979 37.4558448,22.8613518 37.388506,22.9459557 C37.3589814,22.9830707 37.3290025,23.0144225 37.2968661,23.0484254 C37.2559859,23.09188 37.2146515,23.1348735 37.1728628,23.1774059 C36.992422,23.3617132 36.8047136,23.5386435 36.6101919,23.7077359 C36.0845403,24.1645274 35.5100595,24.5633411 34.8994679,24.8942643 C34.3696148,25.1813871 33.8127352,25.4171021 33.2387087,25.5973751 C31.6409731,26.0993502 29.9144649,26.1609012 28.2851607,25.7788008 C27.2483927,25.5357088 26.2536405,25.113266 25.3548433,24.5354472 C24.5027176,23.9878276 23.7374625,23.3028132 23.0955294,22.5132543 C22.3502601,21.5967897 21.7733947,20.5414319 21.4046777,19.4133424 C21.0654854,18.376081 20.9042356,17.2814181 20.9247893,16.1889452 C20.9437532,15.181422 21.1178348,14.177933 21.4421513,13.2253907 C21.8303999,12.0846221 22.4325884,11.0213111 23.2057924,10.1045006 C23.7128208,9.50339851 24.2921845,8.96557635 24.9274178,8.50682534 C25.5998975,8.02110254 26.3349467,7.62459413 27.1082644,7.33147759 C27.7896015,7.07328607 28.500009,6.89554887 29.2213179,6.80230024 C29.6022989,6.75296721 29.9854375,6.7286465 30.3693709,6.72484278 C30.4099105,6.72507331 30.4509043,6.72507331 30.4917845,6.72518857 Z" id="Shape" fill="#3C424F"></path>
            </g>
        </g>
    </g>
</svg>